<?xml version="1.0" encoding="utf-8"?>
<!-- Generator: Adobe Illustrator 24.1.0, SVG Export Plug-In . SVG Version: 6.00 Build 0)  -->
<svg version="1.1" id="Capa_1" xmlns="http://www.w3.org/2000/svg" xmlns:xlink="http://www.w3.org/1999/xlink" x="0px" y="0px"
	 viewBox="0 0 1024 1024" style="enable-background:new 0 0 1024 1024;" xml:space="preserve">
<style type="text/css">
	.st0{fill:#008B95;}
	.st1{fill:#FFFFFF;}
	.st2{fill-rule:evenodd;clip-rule:evenodd;fill:#FFFFFF;}
</style>
<rect class="st0" width="1024" height="1024"/>
<g>
	<path class="st1" d="M207.9,463.9c-6.4-6.2-15.6-11.4-28.4-13.9c-24.7-5.4-60.7-8.2-60.7-23.7c0-11.4,14.2-12.3,23.1-12.3
		c6.6,0,12.6,1.3,17.1,4.1c4.4,2.9,7,7.3,7,14.2h49.7c-0.7-15.6-6.2-27-14.6-35c-14.6-14-38.1-18.1-61-18.1
		c-20.8,0-45.8,4.5-61.1,18.1h0c-8.4,7.6-13.9,18.1-13.9,32.2c0,16.8,6.1,27.4,15.6,34.5c15.4,11.6,39.7,14,60.7,19.3
		c9.5,2.2,26.2,4.7,26.2,17.4c0,3-0.8,5.6-2.2,7.8h0c-4.5,7.1-15.1,9.6-23.1,9.6c-7.6,0-14.9-1.9-19.9-5.7c-1.5-1.2-2.9-2.5-4.1-4
		c-3-3.7-4.8-8.5-4.8-14.4H62.1c0.2,5.2,0.9,10,2,14.4h0c8.7,34.3,43.9,44.4,78.4,44.4c32.8,0,69.2-11.4,77.1-44.4h0
		c1.1-4.3,1.6-9,1.6-14.1C221.2,485.9,218,473.7,207.9,463.9"/>
	<path class="st1" d="M500.4,397.3c-2.8,2.8-5.1,5.8-7,9.1l-0.2-9.1l-0.4-13.4h-52.2v13.4v63.9v2.8v44.4v39.7h53.8v-39.7v-44.4v-2.8
		v-2.6c0-18,8.9-35.1,29.1-35.1c26.1,0,27,18,26.9,37.7h0c0,1.6,0,5.9,0,7.5v39.7v39.7H604v-39.7v-44.4v-2.8v-18.4
		c0-13.4-1.4-31.9-12.4-45.5c-8.6-10.5-22.9-18.1-46.8-18.1C529.1,379.1,511.7,385.9,500.4,397.3"/>
	<path class="st1" d="M402.5,508.4c6.5-12.3,10-26.7,10-42.2c0-0.8,0-1.5,0-2.2c-0.6-27.6-12.4-51.3-31.8-66.6v0
		c-14.5-11.4-33.3-18.1-54.8-18.1c-21.5,0-40.2,6.7-54.7,18.1h0c-19.3,15.3-31.1,39.1-31.6,66.7c0,0.7,0,1.5,0,2.2
		c0,15.5,3.5,29.9,9.9,42.2h0c13.9,26.9,41.6,44.4,76.4,44.4C360.7,552.8,388.4,535.3,402.5,508.4 M358.7,466.1
		c0,16.3-4.8,34.8-18.7,42.2c-4,2.1-8.6,3.3-14.2,3.3c-5.5,0-10.2-1.2-14.1-3.3c-13.9-7.4-18.5-26-18.5-42.2c0-0.8,0-1.5,0-2.2
		c0.5-20.4,8.5-43.7,32.5-43.7c24.1,0,32.4,23.3,32.9,43.7C358.7,464.7,358.7,465.4,358.7,466.1"/>
	<rect x="303.1" y="298.3" class="st1" width="44.6" height="65"/>
	<path class="st1" d="M829.1,463.9v44.4v39.7h53.8v-39.7v-41.6c0-1,0-1.9,0.1-2.8c1.2-19.4,15.1-36.1,40.4-36.1
		c7.3,0,13.6,1.2,20.6,3.2v-33.8V382c-4.1-0.9-8.5-1.3-12.7-1.3c-16.5,0-30.6,5.7-40.2,16.6c-3.8,4.3-6.9,9.5-9.1,15.4l-0.3-15.4
		l-0.3-13.4h-52.2v13.4L829.1,463.9L829.1,463.9z"/>
	<path class="st1" d="M965.9,312.4c-1.4-3.2-3.3-5.9-5.7-8.3c-2.4-2.3-5.2-4.2-8.3-5.5c-3.1-1.3-6.5-2-10.1-2c-3.6,0-7,0.7-10.2,2
		c-3.1,1.3-6,3.1-8.4,5.5s-4.3,5.1-5.7,8.3c-1.4,3.1-2.1,6.6-2.1,10.3c0,3.8,0.7,7.3,2.1,10.5c1.4,3.2,3.3,6,5.7,8.3
		c2.4,2.4,5.3,4.2,8.4,5.5c3.2,1.3,6.6,1.9,10.2,1.9c3.6,0,7-0.6,10.1-1.9c3.1-1.3,5.9-3.1,8.3-5.5c2.4-2.3,4.3-5.1,5.7-8.3
		c1.4-3.2,2.1-6.7,2.1-10.5C968,319,967.3,315.6,965.9,312.4 M962.1,331.9c-1.1,2.8-2.7,5.2-4.7,7.3c-1.9,2-4.3,3.7-7,4.8
		c-2.7,1.2-5.5,1.8-8.7,1.8c-3.2,0-6.1-0.6-8.8-1.8c-2.7-1.1-5-2.8-7-4.8c-2-2.1-3.6-4.5-4.6-7.2c-1.2-2.8-1.7-5.9-1.7-9.2
		c0-3.3,0.5-6.2,1.7-8.9c1.1-2.8,2.7-5.2,4.6-7.2c2-2,4.3-3.6,7-4.8c2.7-1.2,5.6-1.8,8.8-1.8c3.1,0,5.9,0.6,8.7,1.8
		c2.7,1.1,5,2.8,7,4.8c2,2,3.6,4.5,4.7,7.2c1.1,2.8,1.7,5.7,1.7,8.9C963.8,326,963.2,329.1,962.1,331.9"/>
	<path class="st1" d="M938,321.1h6.2c2.6,0,3.9-1.1,3.9-3.7c0-2.5-1.3-3.6-3.9-3.6H938V321.1z M932.3,309.3h14
		c4.7,0,7.6,3.2,7.6,7.1c0,3.1-1.2,5.4-4.1,6.5v0c2.8,0.8,3.6,3.4,3.8,6.1c0.1,1.6,0,4.7,1.1,6.1h-5.7c-0.7-1.6-0.6-4.2-0.9-6.2
		c-0.4-2.7-1.5-3.9-4.3-3.9H938v10.1h-5.7L932.3,309.3z"/>
	<path class="st2" d="M684.7,500.9c0-13,10.1-18,22.1-20.9c11.7-3.1,25.6-4.1,33.2-8.9c1.3,33.8-7.3,48.4-32.9,48.4
		C695.1,519.6,684.7,514.2,684.7,500.9z M687.8,434.5c2.5-13.9,12-20.5,26.9-20.5c11.1,0,25.9,4.8,25.9,17.1
		c0,10.1-5,13.3-14.2,15.2c-37.3,7.6-95.5,3.5-95.5,56.9c0,33.9,24.7,49.7,56,49.7c19.7,0,40.2-5.7,54.1-20.2
		c0.6,5.4,1.2,10.4,3.2,15.5h54.1c-6.3-13-6.3-28.2-6.3-42.1v-71.8c0-46.5-37.6-55-76.5-55c-18.7,0-37.6,3.1-52.2,11.4
		c-14.5,8.6-24.6,22.5-25.6,44L687.8,434.5L687.8,434.5z"/>
</g>
</svg>
